<svg width="58" height="58" viewBox="0 0 58 58" fill="none" xmlns="http://www.w3.org/2000/svg">
<circle cx="29" cy="29" r="29" fill="#33404F"/>
<path d="M33.65 22.72H24.35C21.4 22.72 19 25.12 19 28.07V33.65C19 36.6 21.4 39 24.35 39H33.65C36.6 39 39 36.6 39 33.65V28.07C39 25.12 36.6 22.72 33.65 22.72ZM31.5 29.02C31.5 28.47 31.95 28.02 32.5 28.02C33.05 28.02 33.5 28.47 33.5 29.02C33.5 29.57 33.05 30.03 32.5 30.03C31.95 30.03 31.5 29.59 31.5 29.04V29.02ZM27.13 33.07C26.98 33.22 26.79 33.29 26.6 33.29C26.41 33.29 26.22 33.22 26.07 33.07L25.04 32.04L24.05 33.03C23.9 33.18 23.71 33.25 23.52 33.25C23.33 33.25 23.14 33.18 22.99 33.03C22.7 32.74 22.7 32.26 22.99 31.97L23.98 30.98L23.02 30.02C22.73 29.73 22.73 29.25 23.02 28.96C23.31 28.67 23.79 28.67 24.08 28.96L25.04 29.92L26.03 28.93C26.32 28.64 26.8 28.64 27.09 28.93C27.38 29.22 27.38 29.7 27.09 29.99L26.1 30.98L27.13 32.01C27.42 32.3 27.42 32.78 27.13 33.07ZM30.54 32C29.99 32 29.53 31.55 29.53 31C29.53 30.45 29.97 30 30.52 30H30.54C31.09 30 31.54 30.45 31.54 31C31.54 31.55 31.1 32 30.54 32ZM32.5 33.97C31.95 33.97 31.5 33.53 31.5 32.98V32.96C31.5 32.41 31.95 31.96 32.5 31.96C33.05 31.96 33.5 32.41 33.5 32.96C33.5 33.51 33.06 33.97 32.5 33.97ZM34.48 32C33.93 32 33.47 31.55 33.47 31C33.47 30.45 33.91 30 34.46 30H34.48C35.03 30 35.48 30.45 35.48 31C35.48 31.55 35.04 32 34.48 32Z" fill="white"/>
<path d="M30.6399 19.71L30.6299 20.65C30.6199 21.53 29.8899 22.26 28.9999 22.26C28.8499 22.26 28.7599 22.36 28.7599 22.49C28.7599 22.62 28.8599 22.72 28.9899 22.72H27.3799C27.3699 22.65 27.3599 22.57 27.3599 22.49C27.3599 21.59 28.0899 20.86 28.9799 20.86C29.1299 20.86 29.2299 20.76 29.2299 20.63L29.2399 19.69C29.2499 19.31 29.5599 19 29.9399 19H29.9499C30.3399 19 30.6399 19.32 30.6399 19.71Z" fill="white"/>
</svg>
