<svg width="58" height="58" viewBox="0 0 58 58" fill="none" xmlns="http://www.w3.org/2000/svg">
<circle cx="29" cy="29" r="29" fill="#33404F"/>
<path d="M33.25 39.5C34.2165 39.5 35 38.7165 35 37.75C35 36.7835 34.2165 36 33.25 36C32.2835 36 31.5 36.7835 31.5 37.75C31.5 38.7165 32.2835 39.5 33.25 39.5Z" fill="white"/>
<path d="M25.25 39.5C26.2165 39.5 27 38.7165 27 37.75C27 36.7835 26.2165 36 25.25 36C24.2835 36 23.5 36.7835 23.5 37.75C23.5 38.7165 24.2835 39.5 25.25 39.5Z" fill="white"/>
<path d="M21.84 20.94L21.64 23.39C21.6 23.86 21.97 24.25 22.44 24.25H37.75C38.17 24.25 38.52 23.93 38.55 23.51C38.68 21.74 37.33 20.3 35.56 20.3H23.27C23.17 19.86 22.97 19.44 22.66 19.09C22.16 18.56 21.46 18.25 20.74 18.25H19C18.59 18.25 18.25 18.59 18.25 19C18.25 19.41 18.59 19.75 19 19.75H20.74C21.05 19.75 21.34 19.88 21.55 20.1C21.76 20.33 21.86 20.63 21.84 20.94Z" fill="white"/>
<path d="M37.5101 25.75H22.1701C21.7501 25.75 21.4101 26.07 21.3701 26.48L21.0101 30.83C20.8701 32.54 22.2101 34 23.9201 34H35.0401C36.5401 34 37.8601 32.77 37.9701 31.27L38.3001 26.6C38.3401 26.14 37.9801 25.75 37.5101 25.75Z" fill="white"/>
</svg>
